<svg width="62" height="10" viewBox="0 0 62 10" fill="none" xmlns="http://www.w3.org/2000/svg">
<g clip-path="url(#clip0_2_918)">
<path d="M9.97393 3.83595C9.90847 3.63346 9.72887 3.48965 9.51639 3.4705L6.63011 3.20842L5.4888 0.537072C5.40465 0.341297 5.21299 0.214569 5.00005 0.214569C4.78711 0.214569 4.59545 0.341297 4.5113 0.53753L3.36999 3.20842L0.483257 3.4705C0.271154 3.4901 0.0920116 3.63346 0.0261682 3.83595C-0.0396751 4.03844 0.0211327 4.26054 0.181583 4.40054L2.36326 6.31389L1.71994 9.14775C1.67286 9.35612 1.75374 9.5715 1.92662 9.69647C2.01955 9.76361 2.12827 9.79779 2.23791 9.79779C2.33244 9.79779 2.42621 9.77231 2.51036 9.72195L5.00005 8.23396L7.48882 9.72195C7.67094 9.83152 7.90052 9.82152 8.07302 9.69647C8.24598 9.57112 8.32678 9.35566 8.27971 9.14775L7.63638 6.31389L9.81806 4.40093C9.97851 4.26054 10.0398 4.03882 9.97393 3.83595Z" fill="#FFC107"/>
</g>
<g clip-path="url(#clip1_2_918)">
<path d="M22.9739 3.83595C22.9085 3.63346 22.7289 3.48965 22.5164 3.4705L19.6301 3.20842L18.4888 0.537072C18.4046 0.341297 18.213 0.214569 18.0001 0.214569C17.7871 0.214569 17.5955 0.341297 17.5113 0.53753L16.37 3.20842L13.4833 3.4705C13.2712 3.4901 13.092 3.63346 13.0262 3.83595C12.9603 4.03844 13.0211 4.26054 13.1816 4.40054L15.3633 6.31389L14.7199 9.14775C14.6729 9.35612 14.7537 9.5715 14.9266 9.69647C15.0196 9.76361 15.1283 9.79779 15.2379 9.79779C15.3324 9.79779 15.4262 9.77231 15.5104 9.72195L18.0001 8.23396L20.4888 9.72195C20.6709 9.83152 20.9005 9.82152 21.073 9.69647C21.246 9.57112 21.3268 9.35566 21.2797 9.14775L20.6364 6.31389L22.8181 4.40093C22.9785 4.26054 23.0398 4.03882 22.9739 3.83595Z" fill="#FFC107"/>
</g>
<g clip-path="url(#clip2_2_918)">
<path d="M35.9739 3.83595C35.9085 3.63346 35.7289 3.48965 35.5164 3.4705L32.6301 3.20842L31.4888 0.537072C31.4046 0.341297 31.213 0.214569 31.0001 0.214569C30.7871 0.214569 30.5955 0.341297 30.5113 0.53753L29.37 3.20842L26.4833 3.4705C26.2712 3.4901 26.092 3.63346 26.0262 3.83595C25.9603 4.03844 26.0211 4.26054 26.1816 4.40054L28.3633 6.31389L27.7199 9.14775C27.6729 9.35612 27.7537 9.5715 27.9266 9.69647C28.0196 9.76361 28.1283 9.79779 28.2379 9.79779C28.3324 9.79779 28.4262 9.77231 28.5104 9.72195L31.0001 8.23396L33.4888 9.72195C33.6709 9.83152 33.9005 9.82152 34.073 9.69647C34.246 9.57112 34.3268 9.35566 34.2797 9.14775L33.6364 6.31389L35.8181 4.40093C35.9785 4.26054 36.0398 4.03882 35.9739 3.83595Z" fill="#FFC107"/>
</g>
<g clip-path="url(#clip3_2_918)">
<path d="M48.9739 3.83595C48.9085 3.63346 48.7289 3.48965 48.5164 3.4705L45.6301 3.20842L44.4888 0.537072C44.4046 0.341297 44.213 0.214569 44.0001 0.214569C43.7871 0.214569 43.5955 0.341297 43.5113 0.53753L42.37 3.20842L39.4833 3.4705C39.2712 3.4901 39.092 3.63346 39.0262 3.83595C38.9603 4.03844 39.0211 4.26054 39.1816 4.40054L41.3633 6.31389L40.7199 9.14775C40.6729 9.35612 40.7537 9.5715 40.9266 9.69647C41.0196 9.76361 41.1283 9.79779 41.2379 9.79779C41.3324 9.79779 41.4262 9.77231 41.5104 9.72195L44.0001 8.23396L46.4888 9.72195C46.6709 9.83152 46.9005 9.82152 47.073 9.69647C47.246 9.57112 47.3268 9.35566 47.2797 9.14775L46.6364 6.31389L48.8181 4.40093C48.9785 4.26054 49.0398 4.03882 48.9739 3.83595Z" fill="#FFC107"/>
</g>
<g clip-path="url(#clip4_2_918)">
<path d="M61.9739 3.83595C61.9085 3.63346 61.7289 3.48965 61.5164 3.4705L58.6301 3.20842L57.4888 0.537072C57.4046 0.341297 57.213 0.214569 57.0001 0.214569C56.7871 0.214569 56.5955 0.341297 56.5113 0.53753L55.37 3.20842L52.4833 3.4705C52.2712 3.4901 52.092 3.63346 52.0262 3.83595C51.9603 4.03844 52.0211 4.26054 52.1816 4.40054L54.3633 6.31389L53.7199 9.14775C53.6729 9.35612 53.7537 9.5715 53.9266 9.69647C54.0196 9.76361 54.1283 9.79779 54.2379 9.79779C54.3324 9.79779 54.4262 9.77231 54.5104 9.72195L57.0001 8.23396L59.4888 9.72195C59.6709 9.83152 59.9005 9.82152 60.073 9.69647C60.246 9.57112 60.3268 9.35566 60.2797 9.14775L59.6364 6.31389L61.8181 4.40093C61.9785 4.26054 62.0398 4.03882 61.9739 3.83595Z" fill="#FFC107"/>
</g>
<defs>
<clipPath id="clip0_2_918">
<rect width="10" height="10" fill="white"/>
</clipPath>
<clipPath id="clip1_2_918">
<rect width="10" height="10" fill="white" transform="translate(13)"/>
</clipPath>
<clipPath id="clip2_2_918">
<rect width="10" height="10" fill="white" transform="translate(26)"/>
</clipPath>
<clipPath id="clip3_2_918">
<rect width="10" height="10" fill="white" transform="translate(39)"/>
</clipPath>
<clipPath id="clip4_2_918">
<rect width="10" height="10" fill="white" transform="translate(52)"/>
</clipPath>
</defs>
</svg>
